# xmcd
#
# Track frame offsets:
#	150
#	21842
#	37590
#	53547
#	70322
#	86055
#	100627
#	119572
#	140767
#	155942
#	176970
#
# Disc length: 2536 seconds
#
# Revision: 1
# Processed by: cddbd v1.5.2PL0 Copyright (c) Steve Scherf et al.
# Submitted via: audiograbber 1.83.01
#
DISCID=9609e60b
DTITLE=Sula Miranda - Vol. 8
DYEAR=1994
DGENRE=Country
TTITLE0=Cavaleiro solitário
TTITLE1=Paraíso ou inferno
TTITLE2=Caso de policia
TTITLE3=Deixa eu ir embora
TTITLE4=Não quero ver você triste
TTITLE5=Ele detonou meu coração
TTITLE6=O segredo dos cristais
TTITLE7=Tudo passará
TTITLE8=Minha Velha
TTITLE9=Dentro de min
TTITLE10=Parreira de uva preta
EXTD=
EXTT0=
EXTT1=
EXTT2=
EXTT3=
EXTT4=
EXTT5=
EXTT6=
EXTT7=
EXTT8=
EXTT9=
EXTT10=
PLAYORDER=
